<svg id="svg" version="1.1" xmlns="http://www.w3.org/2000/svg" xmlns:xlink="http://www.w3.org/1999/xlink" width="400" height="386.09022556390977" viewBox="0, 0, 400,386.09022556390977"><g id="svgg"><path id="path0" d="M0.000 193.045 L 0.000 386.090 200.000 386.090 L 400.000 386.090 400.000 193.045 L 400.000 0.000 200.000 0.000 L 0.000 0.000 0.000 193.045 M189.340 11.095 C 189.460 11.408,189.392 11.873,189.189 12.129 C 188.833 12.577,188.418 14.372,188.125 16.729 C 187.773 19.552,187.665 20.025,187.318 20.250 C 186.850 20.552,185.714 22.746,185.714 23.348 C 185.714 23.597,185.291 24.356,184.774 25.033 C 184.258 25.711,183.835 26.456,183.835 26.689 C 183.835 27.347,186.156 30.075,186.717 30.075 C 186.993 30.075,187.218 30.228,187.218 30.416 C 187.218 30.870,190.457 31.955,191.815 31.955 C 193.014 31.955,194.828 31.122,195.994 30.035 C 196.414 29.644,196.972 29.323,197.233 29.323 C 197.494 29.323,197.842 29.096,198.008 28.819 C 198.173 28.541,198.816 27.993,199.436 27.600 C 200.056 27.207,200.892 26.588,201.293 26.225 C 201.694 25.861,202.136 25.564,202.276 25.564 C 202.415 25.564,203.102 25.059,203.802 24.442 C 204.502 23.825,205.176 23.318,205.300 23.314 C 205.423 23.311,205.873 23.012,206.298 22.650 C 206.724 22.289,207.455 21.739,207.922 21.429 C 208.389 21.118,209.081 20.569,209.461 20.207 C 209.840 19.845,210.320 19.549,210.526 19.549 C 210.733 19.549,210.902 19.393,210.902 19.204 C 210.902 19.014,211.537 18.469,212.312 17.994 C 213.087 17.518,214.026 16.850,214.397 16.510 C 215.025 15.932,216.871 15.608,221.992 15.173 C 223.026 15.086,224.380 14.855,225.000 14.660 C 225.620 14.466,227.130 14.218,228.355 14.109 C 229.580 13.999,230.999 13.614,231.509 13.252 C 234.615 11.047,237.218 10.757,237.218 12.616 C 237.218 13.121,237.049 13.534,236.842 13.534 C 236.635 13.534,236.466 13.914,236.465 14.380 C 236.464 14.845,236.126 15.779,235.713 16.456 C 235.300 17.133,234.962 17.911,234.962 18.184 C 234.962 18.457,234.653 18.961,234.275 19.303 C 233.896 19.645,233.195 20.763,232.715 21.787 C 232.054 23.198,231.590 23.705,230.798 23.879 C 229.596 24.143,228.571 26.510,228.571 29.023 C 228.571 31.768,233.347 35.392,235.618 34.372 C 235.981 34.209,236.581 34.044,236.950 34.006 C 237.601 33.938,240.108 32.982,241.442 32.292 C 241.801 32.107,242.337 31.955,242.634 31.955 C 242.930 31.955,243.651 31.717,244.236 31.426 C 244.822 31.135,245.724 30.723,246.241 30.511 C 246.758 30.299,247.773 29.869,248.496 29.554 C 249.220 29.239,250.742 28.622,251.880 28.182 C 253.017 27.743,254.539 27.078,255.263 26.706 C 258.819 24.875,263.893 23.872,264.514 24.877 C 264.639 25.080,265.370 25.134,266.165 25.000 C 267.084 24.845,267.688 24.914,267.862 25.195 C 268.033 25.473,268.605 25.543,269.432 25.387 C 270.226 25.238,270.941 25.315,271.264 25.584 C 271.568 25.836,272.213 25.919,272.775 25.778 C 273.335 25.637,273.982 25.719,274.283 25.969 C 274.678 26.297,275.226 26.301,276.481 25.985 C 281.527 24.714,284.034 26.209,281.398 28.918 C 280.679 29.658,279.249 31.144,278.221 32.221 C 277.192 33.298,275.244 34.890,273.890 35.759 C 272.536 36.628,271.429 37.556,271.429 37.821 C 271.429 38.086,271.109 38.527,270.719 38.800 C 268.976 40.021,269.084 42.713,270.954 44.670 C 271.215 44.943,271.429 45.307,271.429 45.478 C 271.429 47.257,275.939 47.745,282.171 46.641 C 284.430 46.241,287.124 45.818,288.158 45.701 C 289.192 45.584,290.630 45.401,291.353 45.296 C 293.213 45.024,295.515 44.698,296.617 44.551 C 297.133 44.482,298.402 44.307,299.436 44.163 C 302.160 43.783,302.101 43.773,306.203 45.280 C 309.583 46.521,313.389 47.822,316.825 48.910 C 317.498 49.123,318.366 49.197,318.754 49.074 C 319.212 48.929,319.543 49.067,319.697 49.467 C 319.891 49.973,320.036 49.999,320.504 49.611 C 320.973 49.222,321.224 49.273,321.910 49.897 C 322.369 50.315,322.956 50.579,323.214 50.485 C 324.838 49.892,322.401 53.421,320.700 54.126 C 320.067 54.388,319.549 54.751,319.549 54.933 C 319.549 55.115,319.295 55.263,318.985 55.263 C 318.675 55.263,318.421 55.399,318.421 55.564 C 318.421 56.004,315.160 57.517,314.182 57.531 C 313.722 57.538,312.500 58.043,311.466 58.654 C 310.432 59.265,309.353 59.878,309.067 60.016 C 306.973 61.033,305.639 63.633,306.442 65.132 C 306.809 65.819,306.719 66.047,305.784 66.782 C 305.187 67.252,304.192 68.075,303.571 68.612 C 302.951 69.149,301.995 69.960,301.446 70.414 C 298.599 72.772,297.169 73.983,295.971 75.050 C 292.468 78.171,291.989 78.439,289.353 78.750 C 283.877 79.396,282.853 81.179,285.996 84.595 C 288.275 87.073,290.094 87.054,291.376 84.542 C 291.786 83.739,292.012 83.083,291.879 83.083 C 291.746 83.083,291.830 82.850,292.066 82.566 C 292.301 82.283,292.395 81.792,292.274 81.477 C 292.130 81.101,292.548 80.536,293.490 79.834 C 294.279 79.245,295.741 78.001,296.738 77.069 C 297.736 76.138,298.700 75.322,298.880 75.257 C 299.061 75.192,299.909 74.487,300.765 73.692 C 301.620 72.896,302.903 71.765,303.615 71.179 C 304.326 70.593,305.365 69.648,305.922 69.079 C 306.873 68.108,308.647 67.649,308.647 68.374 C 308.647 68.792,313.355 70.298,314.850 70.359 C 315.470 70.383,316.570 70.539,317.293 70.705 C 318.017 70.871,319.878 71.120,321.429 71.260 C 322.979 71.400,325.009 71.582,325.940 71.665 C 326.870 71.748,328.562 71.903,329.699 72.010 C 330.836 72.118,332.518 72.205,333.435 72.206 C 334.353 72.206,335.318 72.383,335.579 72.600 C 335.840 72.817,336.377 72.892,336.771 72.767 C 337.210 72.628,337.691 72.784,338.011 73.170 C 338.298 73.517,339.084 74.031,339.756 74.311 C 340.428 74.592,340.977 74.989,340.977 75.193 C 340.977 75.397,341.231 75.564,341.541 75.564 C 341.852 75.564,342.105 75.695,342.105 75.854 C 342.105 76.014,342.697 76.464,343.421 76.853 C 344.145 77.243,344.737 77.705,344.737 77.879 C 344.737 78.053,344.991 78.195,345.301 78.195 C 345.611 78.195,345.865 78.365,345.865 78.571 C 345.865 78.778,346.118 78.947,346.429 78.947 C 346.739 78.947,346.992 79.117,346.992 79.323 C 346.992 79.530,347.214 79.699,347.486 79.699 C 347.757 79.699,348.306 80.000,348.707 80.367 C 349.784 81.353,351.930 82.543,353.602 83.080 C 356.752 84.093,357.251 85.577,354.793 86.630 C 353.914 87.006,352.688 87.540,352.068 87.817 C 349.747 88.851,344.420 89.904,343.648 89.482 C 343.153 89.211,339.547 90.456,337.964 91.444 C 334.644 93.518,336.079 98.582,340.602 100.751 C 341.945 101.396,343.339 102.083,343.698 102.278 C 344.057 102.472,344.681 102.632,345.085 102.632 C 345.490 102.632,345.922 102.796,346.046 102.997 C 346.171 103.198,346.984 103.549,347.854 103.776 C 348.724 104.003,350.124 104.515,350.965 104.914 C 351.805 105.313,352.626 105.639,352.787 105.639 C 352.949 105.639,353.615 105.870,354.266 106.153 C 354.918 106.435,356.720 107.122,358.271 107.680 C 359.821 108.238,361.384 108.853,361.743 109.046 C 362.102 109.240,362.610 109.401,362.871 109.405 C 363.132 109.409,364.192 110.241,365.226 111.255 C 368.164 114.137,368.797 114.847,368.797 115.264 C 368.797 115.477,369.347 116.188,370.019 116.845 C 372.274 119.048,373.552 120.482,374.208 121.545 C 374.736 122.402,375.084 122.579,376.057 122.484 C 377.090 122.384,377.397 122.576,378.283 123.872 C 379.946 126.308,379.648 127.448,377.288 127.677 C 376.650 127.739,375.028 127.900,373.684 128.034 C 369.381 128.466,366.542 128.313,365.763 127.608 C 363.910 125.931,358.421 128.113,356.780 131.179 C 355.914 132.796,357.665 137.232,359.385 137.778 C 359.806 137.911,360.326 138.348,360.540 138.747 C 360.754 139.147,361.099 139.474,361.307 139.474 C 361.655 139.474,361.988 139.701,363.265 140.811 C 363.516 141.029,364.018 141.320,364.380 141.457 C 364.742 141.594,365.038 141.880,365.038 142.093 C 365.038 142.307,365.291 142.481,365.602 142.481 C 365.912 142.481,366.165 142.624,366.165 142.798 C 366.165 142.972,366.758 143.434,367.481 143.823 C 368.205 144.213,368.797 144.663,368.797 144.822 C 368.797 144.982,369.051 145.113,369.361 145.113 C 369.671 145.113,369.925 145.245,369.925 145.408 C 369.925 145.570,370.475 146.026,371.147 146.420 C 371.819 146.815,372.592 147.359,372.865 147.629 C 373.138 147.899,374.153 148.580,375.121 149.143 C 377.144 150.321,377.165 150.335,379.038 151.903 C 380.334 152.987,385.002 161.698,385.899 164.707 C 386.046 165.199,386.632 166.195,387.201 166.920 C 390.458 171.073,391.189 174.225,388.694 173.355 C 388.027 173.123,386.788 172.926,385.940 172.919 C 383.123 172.895,379.950 171.978,377.819 170.573 C 375.831 169.262,375.637 169.213,372.737 169.296 C 365.104 169.515,364.322 176.066,371.147 182.632 C 371.715 183.179,372.180 183.750,372.180 183.901 C 372.180 184.053,372.561 184.583,373.026 185.079 C 373.492 185.576,374.211 186.432,374.624 186.982 C 376.434 189.388,377.333 190.454,378.477 191.551 C 379.149 192.195,379.699 192.910,379.699 193.140 C 379.699 193.370,380.207 193.919,380.827 194.361 C 381.447 194.803,381.955 195.387,381.955 195.659 C 381.955 195.931,382.342 196.408,382.816 196.718 C 383.678 197.283,384.575 200.275,385.154 204.511 C 385.752 208.899,386.970 213.865,387.791 215.270 C 389.829 218.758,389.596 221.447,387.307 220.873 C 384.497 220.169,377.068 215.987,377.068 215.109 C 377.068 213.957,370.646 212.167,368.568 212.740 C 364.127 213.964,363.534 218.008,366.797 224.812 C 367.938 227.190,369.206 229.981,369.615 231.015 C 370.025 232.049,370.581 233.148,370.850 233.459 C 371.119 233.769,371.466 234.436,371.621 234.942 C 371.775 235.447,372.816 237.807,373.934 240.186 C 375.576 243.680,375.917 244.732,375.707 245.658 C 375.379 247.105,375.159 249.375,375.158 251.316 C 375.158 252.143,375.050 253.073,374.918 253.383 C 374.445 254.494,374.242 263.975,374.651 265.883 C 374.918 267.132,373.513 267.379,372.510 266.259 C 372.187 265.898,371.535 265.348,371.063 265.038 C 369.804 264.211,368.452 263.085,367.564 262.124 C 367.134 261.659,366.558 261.278,366.286 261.278 C 366.013 261.278,365.789 261.126,365.789 260.940 C 365.789 260.415,362.388 256.015,361.983 256.015 C 361.785 256.015,361.139 255.656,360.546 255.218 C 357.941 253.293,352.610 254.434,351.556 257.143 C 350.980 258.620,350.737 261.976,351.185 262.253 C 351.407 262.391,351.480 262.993,351.352 263.633 C 351.227 264.258,351.290 264.968,351.491 265.210 C 351.692 265.453,351.957 266.739,352.080 268.070 C 352.202 269.400,352.365 270.912,352.442 271.429 C 352.519 271.945,352.688 273.214,352.818 274.248 C 352.948 275.282,353.207 276.720,353.393 277.444 C 353.580 278.167,353.841 279.854,353.974 281.191 C 354.107 282.528,354.364 284.012,354.545 284.488 C 354.937 285.517,353.021 291.650,350.582 297.180 C 349.395 299.870,348.694 302.134,348.779 303.008 C 349.059 305.917,347.344 308.757,346.181 307.308 C 345.904 306.963,345.211 306.239,344.643 305.700 C 344.074 305.161,343.609 304.541,343.609 304.323 C 343.609 304.105,343.313 303.647,342.951 303.305 C 341.554 301.987,339.474 298.356,339.474 297.236 C 339.474 295.455,335.919 291.851,333.835 291.519 C 331.286 291.114,331.000 290.975,329.323 289.325 C 326.159 286.211,324.060 283.932,324.060 283.609 C 324.060 283.432,323.426 282.675,322.650 281.928 C 321.875 281.180,320.395 279.605,319.361 278.428 C 318.327 277.250,317.294 276.076,317.066 275.819 C 316.678 275.382,316.324 274.021,316.021 271.805 C 315.660 269.158,313.675 267.413,311.555 267.879 C 308.521 268.545,307.249 270.688,308.723 272.650 C 309.228 273.322,309.745 274.154,309.872 274.498 C 310.017 274.893,310.908 275.300,312.288 275.603 C 314.502 276.089,316.428 277.614,318.609 280.609 C 319.023 281.177,320.084 282.431,320.968 283.396 C 321.852 284.361,323.175 285.827,323.907 286.654 C 324.639 287.481,325.732 288.711,326.336 289.387 C 327.537 290.733,328.136 292.423,327.547 292.804 C 326.935 293.199,325.762 295.605,325.689 296.617 C 325.651 297.133,325.514 298.402,325.385 299.436 C 325.255 300.470,325.083 301.992,325.002 302.820 C 324.922 303.647,324.754 305.085,324.629 306.015 C 324.398 307.739,324.250 309.106,323.896 312.782 C 323.786 313.919,323.600 315.695,323.481 316.729 C 323.363 317.763,323.212 319.117,323.145 319.737 C 322.938 321.665,322.510 322.870,321.959 323.081 C 321.667 323.193,321.429 323.544,321.429 323.860 C 321.429 324.177,321.262 324.436,321.058 324.436 C 320.854 324.436,320.454 324.986,320.170 325.658 C 319.885 326.330,319.291 327.202,318.849 327.596 C 318.407 327.990,318.045 328.540,318.045 328.818 C 318.045 329.096,317.912 329.323,317.749 329.323 C 317.586 329.323,316.708 330.465,315.798 331.861 C 314.888 333.257,314.049 334.483,313.933 334.587 C 313.401 335.061,312.406 337.363,312.406 338.117 C 312.406 338.579,312.101 339.284,311.729 339.685 C 311.357 340.086,310.934 340.722,310.790 341.099 C 310.242 342.534,309.256 341.577,308.144 338.532 C 305.699 331.838,305.592 331.432,305.831 329.785 C 306.242 326.945,302.738 321.466,300.492 321.439 C 300.039 321.433,299.566 321.263,299.441 321.060 C 299.109 320.524,295.868 320.856,294.518 321.564 C 293.225 322.243,291.535 325.547,288.720 332.895 C 286.757 338.021,286.765 338.002,285.432 340.977 C 284.830 342.321,283.944 344.496,283.462 345.809 C 282.571 348.239,279.750 351.574,278.158 352.080 C 277.765 352.204,277.444 352.464,277.444 352.657 C 277.444 352.850,277.246 353.008,277.005 353.008 C 276.582 353.008,276.123 353.371,274.278 355.169 C 273.801 355.634,273.224 356.015,272.996 356.015 C 272.769 356.015,272.402 356.353,272.180 356.767 C 271.959 357.180,271.572 357.519,271.321 357.519 C 271.069 357.519,270.103 358.390,269.172 359.454 C 266.899 362.056,266.542 362.406,266.164 362.406 C 265.986 362.406,265.733 362.744,265.602 363.158 C 264.886 365.411,263.816 363.455,263.816 359.894 C 263.816 358.588,263.710 357.519,263.581 357.519 C 263.239 357.519,263.395 351.281,263.750 350.706 C 264.830 348.958,263.322 342.481,261.834 342.481 C 261.529 342.481,261.278 342.335,261.278 342.157 C 261.278 341.692,257.508 340.590,256.391 340.729 C 254.476 340.967,250.376 343.945,250.376 345.099 C 250.376 345.299,250.038 345.643,249.624 345.865 C 249.211 346.086,248.872 346.515,248.872 346.818 C 248.872 347.121,248.699 347.368,248.487 347.368 C 248.275 347.368,247.941 347.791,247.744 348.308 C 247.548 348.825,247.214 349.248,247.002 349.248 C 246.790 349.248,246.617 349.496,246.617 349.799 C 246.617 350.102,246.278 350.531,245.865 350.752 C 245.451 350.973,245.113 351.296,245.113 351.469 C 245.113 351.643,244.436 352.525,243.609 353.430 C 242.782 354.335,242.105 355.286,242.105 355.545 C 242.105 355.803,241.943 356.015,241.745 356.015 C 241.547 356.015,240.948 356.761,240.414 357.673 C 239.879 358.584,239.196 359.425,238.894 359.540 C 238.593 359.656,238.346 359.953,238.346 360.201 C 238.346 361.371,234.777 364.413,232.033 365.583 C 227.366 367.571,222.853 369.568,221.110 370.414 C 220.625 370.650,219.846 371.297,219.378 371.852 C 218.585 372.795,215.869 374.436,215.102 374.436 C 214.605 374.436,214.283 371.448,214.691 370.625 C 214.881 370.240,215.207 369.589,215.414 369.178 C 215.620 368.767,215.789 368.119,215.789 367.737 C 215.789 367.355,215.887 366.945,216.007 366.826 C 216.126 366.706,216.281 365.670,216.351 364.524 C 216.447 362.940,216.734 362.103,217.544 361.041 C 220.986 356.524,216.912 348.552,211.595 349.402 C 209.989 349.659,206.767 351.111,206.767 351.579 C 206.767 351.744,206.513 351.880,206.203 351.880 C 205.893 351.880,205.639 352.009,205.639 352.168 C 205.639 352.409,204.225 353.459,201.216 355.451 C 200.904 355.658,200.230 356.202,199.718 356.661 C 199.207 357.120,198.469 357.596,198.078 357.720 C 197.688 357.844,197.368 358.103,197.368 358.296 C 197.368 358.489,197.152 358.647,196.888 358.647 C 196.624 358.647,196.128 358.943,195.787 359.305 C 194.870 360.276,194.149 360.831,192.675 361.700 C 191.948 362.129,191.353 362.633,191.353 362.819 C 191.353 363.005,191.137 363.158,190.873 363.158 C 190.609 363.158,190.128 363.454,189.804 363.816 C 189.480 364.178,188.834 364.727,188.369 365.038 C 187.904 365.348,187.173 365.900,186.744 366.265 C 186.288 366.651,185.669 366.834,185.257 366.703 C 184.868 366.580,184.313 366.676,184.023 366.917 C 183.732 367.158,183.140 367.243,182.707 367.105 C 182.273 366.968,181.681 367.052,181.391 367.293 C 181.101 367.534,180.509 367.619,180.075 367.481 C 179.642 367.344,179.050 367.428,178.759 367.669 C 178.469 367.910,177.877 367.995,177.444 367.857 C 177.010 367.719,176.412 367.809,176.115 368.056 C 175.816 368.304,175.161 368.401,174.652 368.274 C 174.145 368.146,173.619 368.222,173.483 368.442 C 173.348 368.662,172.872 368.806,172.426 368.763 C 171.981 368.720,171.363 368.777,171.053 368.890 C 164.114 371.406,162.927 370.961,165.226 366.704 C 165.949 365.363,166.541 364.017,166.541 363.712 C 166.541 363.407,166.720 363.158,166.938 363.158 C 167.156 363.158,167.675 362.354,168.090 361.372 C 168.545 360.299,169.315 359.287,170.020 358.835 C 172.515 357.237,174.264 350.000,172.155 350.000 C 171.962 350.000,171.805 349.776,171.805 349.502 C 171.805 348.913,170.583 347.805,168.927 346.894 C 167.324 346.011,164.318 346.055,162.214 346.992 C 161.286 347.406,159.805 348.065,158.923 348.457 C 158.041 348.848,155.779 349.764,153.895 350.491 C 152.012 351.219,150.154 351.981,149.766 352.185 C 149.378 352.389,147.876 353.023,146.429 353.592 C 144.981 354.162,143.036 354.981,142.105 355.413 C 139.719 356.522,136.904 356.463,125.940 355.074 C 125.216 354.983,124.055 354.807,123.360 354.684 C 122.384 354.512,121.933 354.635,121.387 355.221 C 120.359 356.325,116.409 356.190,116.243 355.045 C 116.182 354.625,116.478 353.969,116.901 353.586 C 117.323 353.204,117.669 352.724,117.669 352.519 C 117.669 352.144,118.071 351.665,120.411 349.248 C 121.111 348.524,121.792 347.632,121.924 347.266 C 122.056 346.899,122.463 346.487,122.830 346.349 C 123.196 346.212,123.665 345.888,123.872 345.630 C 124.079 345.371,124.826 345.016,125.533 344.839 C 126.240 344.662,127.000 344.186,127.224 343.781 C 127.447 343.376,128.039 342.470,128.539 341.766 C 130.376 339.183,129.520 333.690,127.136 332.760 C 124.529 331.742,121.002 331.491,117.669 332.086 C 115.603 332.455,108.742 333.498,107.147 333.686 C 106.214 333.796,105.028 333.948,104.511 334.023 C 101.584 334.452,100.106 334.657,99.436 334.727 C 99.023 334.770,98.283 334.943,97.794 335.111 C 97.273 335.290,96.570 335.254,96.102 335.023 C 94.471 334.221,91.136 332.801,90.226 332.522 C 89.709 332.363,88.524 331.897,87.594 331.486 C 86.664 331.076,85.349 330.496,84.672 330.198 C 83.996 329.900,82.473 329.478,81.289 329.260 C 80.104 329.042,78.813 328.695,78.419 328.490 C 78.026 328.285,76.940 328.007,76.007 327.874 C 73.816 327.561,73.662 326.985,75.542 326.138 C 76.369 325.765,77.330 325.145,77.679 324.760 C 78.027 324.375,78.545 324.060,78.829 324.060 C 79.114 324.060,79.444 323.806,79.563 323.496 C 79.682 323.186,79.954 322.932,80.166 322.932 C 80.379 322.932,80.934 322.521,81.400 322.018 C 82.312 321.034,84.898 320.155,85.829 320.512 C 86.811 320.889,90.780 317.940,91.763 316.103 C 92.406 314.900,92.568 312.019,92.061 310.795 C 91.637 309.773,91.696 309.638,93.080 308.443 C 93.888 307.746,94.803 306.940,95.113 306.651 C 95.423 306.362,96.184 305.806,96.805 305.414 C 97.425 305.023,98.241 304.322,98.618 303.855 C 98.994 303.389,99.478 303.008,99.691 303.008 C 99.905 303.008,100.412 302.585,100.819 302.068 C 101.226 301.551,101.758 301.128,102.001 301.128 C 102.245 301.128,103.205 300.418,104.136 299.550 C 107.065 296.817,107.894 296.383,110.307 296.320 C 116.495 296.157,116.621 288.541,110.447 287.879 C 108.698 287.692,105.362 289.635,106.630 290.102 C 107.053 290.258,106.852 291.735,106.177 293.421 C 105.719 294.564,103.287 297.368,102.753 297.368 C 102.494 297.368,102.101 297.707,101.880 298.120 C 101.658 298.534,101.335 298.872,101.162 298.872 C 100.989 298.872,100.107 299.549,99.202 300.376 C 98.297 301.203,97.340 301.880,97.075 301.880 C 96.810 301.880,96.497 302.130,96.379 302.436 C 96.262 302.742,95.548 303.364,94.794 303.819 C 93.433 304.638,92.795 305.144,91.345 306.560 C 90.608 307.279,90.515 307.281,86.556 306.634 C 84.336 306.271,82.023 305.979,81.418 305.985 C 80.812 305.991,80.100 305.816,79.835 305.596 C 79.570 305.376,78.857 305.306,78.247 305.440 C 77.576 305.587,77.036 305.516,76.877 305.259 C 76.711 304.991,76.089 304.923,75.188 305.075 C 74.287 305.227,73.665 305.160,73.499 304.892 C 73.340 304.635,72.800 304.563,72.129 304.710 C 71.479 304.853,70.803 304.772,70.491 304.513 C 70.200 304.271,69.606 304.186,69.173 304.323 C 68.740 304.461,68.146 304.375,67.855 304.133 C 67.543 303.875,66.867 303.793,66.217 303.936 C 65.551 304.082,65.006 304.012,64.850 303.759 C 64.698 303.514,64.152 303.436,63.534 303.571 C 62.940 303.702,62.370 303.629,62.232 303.405 C 62.096 303.187,61.591 303.008,61.108 303.008 C 60.626 303.008,60.133 302.754,60.014 302.444 C 59.895 302.133,59.557 301.880,59.263 301.880 C 58.968 301.880,58.630 301.626,58.511 301.316 C 58.392 301.006,58.035 300.752,57.719 300.752 C 57.402 300.752,57.143 300.579,57.143 300.367 C 57.143 300.155,56.720 299.821,56.203 299.624 C 55.686 299.428,55.263 299.093,55.263 298.881 C 55.263 298.670,55.009 298.496,54.699 298.496 C 54.389 298.496,54.135 298.327,54.135 298.120 C 54.135 297.914,53.924 297.741,53.665 297.737 C 53.407 297.733,52.521 297.141,51.696 296.421 C 50.871 295.702,50.093 295.113,49.968 295.113 C 49.842 295.113,49.349 294.774,48.872 294.361 C 48.395 293.947,47.566 293.607,47.029 293.603 C 46.492 293.600,45.630 293.349,45.113 293.046 C 44.596 292.742,43.882 292.388,43.527 292.259 C 40.702 291.232,44.939 288.061,50.541 287.009 C 51.282 286.871,51.981 286.607,52.094 286.424 C 52.362 285.989,54.007 285.995,54.826 286.433 C 55.631 286.864,58.706 286.101,60.545 285.014 C 63.168 283.463,64.246 278.148,62.448 275.623 C 61.351 274.082,54.603 270.872,44.549 267.108 C 42.481 266.333,40.113 265.392,39.286 265.015 C 38.459 264.638,37.331 264.220,36.779 264.087 C 36.228 263.953,35.504 263.563,35.170 263.219 C 34.011 262.024,33.008 260.708,32.473 259.680 C 32.178 259.112,31.771 258.647,31.569 258.647 C 31.368 258.647,31.203 258.399,31.203 258.096 C 31.203 257.793,30.865 257.364,30.451 257.143 C 30.038 256.922,29.699 256.511,29.699 256.230 C 29.699 255.949,29.445 255.622,29.135 255.503 C 28.825 255.384,28.571 255.028,28.571 254.711 C 28.571 254.394,28.397 254.135,28.184 254.135 C 27.970 254.135,27.686 253.839,27.551 253.477 C 27.128 252.340,25.819 250.752,25.305 250.752 C 25.034 250.752,24.812 250.583,24.812 250.376 C 24.812 250.169,24.572 250.000,24.279 250.000 C 23.985 250.000,23.380 249.408,22.932 248.684 C 22.485 247.961,21.964 247.368,21.774 247.368 C 21.584 247.368,21.429 247.199,21.429 246.992 C 21.429 246.786,21.823 246.617,22.306 246.617 C 22.788 246.617,23.311 246.490,23.467 246.335 C 24.035 245.771,33.243 245.599,33.919 246.140 C 34.643 246.719,38.601 247.116,38.896 246.639 C 39.031 246.420,39.597 246.238,40.154 246.234 C 41.153 246.227,44.321 243.039,44.388 241.973 C 44.580 238.926,44.506 238.432,43.642 237.030 C 42.468 235.123,39.840 232.331,39.221 232.331 C 38.961 232.331,38.567 231.992,38.346 231.579 C 38.125 231.165,37.780 230.827,37.581 230.827 C 37.381 230.827,36.892 230.531,36.493 230.169 C 35.142 228.943,34.619 228.571,34.245 228.571 C 34.040 228.571,33.737 228.344,33.571 228.067 C 33.406 227.789,32.763 227.241,32.143 226.850 C 31.523 226.458,30.768 225.901,30.466 225.611 C 30.164 225.321,29.107 224.585,28.117 223.976 C 27.126 223.366,26.316 222.713,26.316 222.524 C 26.316 222.335,26.157 222.180,25.963 222.180 C 25.769 222.180,25.055 221.673,24.376 221.053 C 23.696 220.432,22.966 219.925,22.752 219.925 C 22.302 219.925,22.260 219.834,18.971 211.654 C 17.599 208.242,16.174 205.113,15.804 204.699 C 15.434 204.286,14.823 203.271,14.446 202.444 C 14.069 201.617,13.584 200.820,13.369 200.674 C 12.782 200.275,13.687 199.524,14.912 199.393 C 15.479 199.333,16.154 199.458,16.412 199.673 C 16.670 199.887,17.236 199.950,17.669 199.812 C 18.103 199.674,18.695 199.759,18.985 200.000 C 19.275 200.241,19.845 200.333,20.251 200.204 C 20.657 200.075,21.098 200.145,21.231 200.361 C 21.364 200.576,21.897 200.752,22.415 200.752 C 23.502 200.752,24.571 201.263,25.568 202.260 C 28.438 205.130,34.520 203.680,36.650 199.619 C 38.077 196.898,37.106 192.737,34.695 191.241 C 34.428 191.075,34.211 190.779,34.211 190.583 C 34.211 190.386,33.914 189.905,33.553 189.513 C 32.090 187.929,31.041 186.592,30.351 185.432 C 29.952 184.760,29.473 184.211,29.286 184.211 C 29.100 184.211,28.947 183.963,28.947 183.660 C 28.947 183.357,28.609 182.928,28.195 182.707 C 27.782 182.485,27.444 182.057,27.444 181.754 C 27.444 181.451,27.269 181.203,27.056 181.203 C 26.843 181.203,26.559 180.907,26.426 180.545 C 26.293 180.183,25.833 179.523,25.404 179.077 C 24.171 177.795,23.684 177.129,23.684 176.721 C 23.684 176.513,23.353 176.165,22.948 175.948 C 21.947 175.413,21.035 173.374,20.812 171.178 C 20.617 169.243,20.409 167.418,20.126 165.132 C 20.030 164.356,19.859 162.453,19.746 160.902 C 19.582 158.656,19.388 157.978,18.793 157.567 C 18.345 157.258,18.045 156.626,18.045 155.991 C 18.045 155.408,17.876 154.827,17.669 154.699 C 17.462 154.571,17.293 153.969,17.293 153.361 C 17.293 151.854,17.898 151.924,22.029 153.909 C 23.910 154.813,25.776 155.656,26.176 155.783 C 26.576 155.910,27.644 156.869,28.551 157.914 C 29.458 158.959,30.521 159.987,30.914 160.197 C 34.318 162.019,39.151 160.914,40.410 158.025 C 40.757 157.230,41.196 156.285,41.385 155.926 C 41.842 155.060,41.824 153.486,41.353 153.195 C 41.147 153.068,40.977 152.724,40.977 152.432 C 40.977 151.944,36.422 140.195,35.173 137.464 C 33.315 133.400,31.982 129.224,32.332 128.568 C 32.537 128.187,32.601 127.606,32.475 127.278 C 32.350 126.950,32.438 126.452,32.671 126.171 C 32.905 125.889,32.989 125.382,32.859 125.043 C 32.729 124.704,32.796 124.217,33.007 123.961 C 33.219 123.706,33.405 123.073,33.421 122.556 C 33.455 121.399,33.677 119.491,33.835 118.985 C 33.993 118.479,34.214 116.571,34.249 115.414 C 34.264 114.897,34.450 114.264,34.662 114.009 C 34.873 113.753,34.940 113.266,34.810 112.927 C 34.680 112.588,34.767 112.078,35.003 111.794 C 35.241 111.507,35.333 110.783,35.211 110.170 C 34.915 108.690,36.321 108.095,37.153 109.349 C 37.446 109.790,37.899 110.150,38.161 110.150 C 38.422 110.150,38.912 110.573,39.251 111.090 C 39.590 111.607,40.075 112.030,40.329 112.030 C 40.954 112.030,42.857 114.084,42.857 114.758 C 42.857 115.054,43.195 115.603,43.609 115.977 C 44.023 116.352,44.361 116.855,44.361 117.096 C 44.361 118.212,48.216 120.626,49.845 120.530 C 52.143 120.394,54.889 119.071,55.753 117.682 C 56.941 115.771,57.553 113.840,57.131 113.332 C 56.938 113.099,56.782 111.992,56.785 110.871 C 56.789 108.985,56.712 107.950,56.186 102.820 C 56.080 101.786,55.931 100.179,55.854 99.248 C 55.712 97.517,55.434 94.607,55.069 91.034 C 54.879 89.173,55.022 88.683,56.997 84.455 C 59.881 78.279,60.942 75.529,60.716 74.817 C 60.611 74.488,60.865 73.556,61.278 72.744 C 61.692 71.933,62.030 70.892,62.030 70.431 C 62.030 69.112,62.582 69.106,63.337 70.415 C 64.065 71.679,64.690 72.445,66.052 73.748 C 66.506 74.182,67.334 75.789,67.892 77.318 C 68.450 78.847,69.051 80.188,69.227 80.297 C 69.404 80.406,69.549 80.887,69.549 81.365 C 69.549 83.658,74.101 86.125,77.431 85.636 C 78.572 85.469,80.319 86.839,82.632 89.714 C 85.567 93.361,87.939 96.095,89.634 97.784 C 91.019 99.164,91.116 99.407,91.217 101.753 C 91.384 105.609,93.660 107.497,96.634 106.247 C 98.222 105.579,100.178 103.600,99.821 103.022 C 99.677 102.789,99.757 102.360,99.999 102.069 C 100.697 101.228,99.750 99.196,98.109 98.017 C 96.493 96.855,96.241 96.785,96.241 97.500 C 96.241 97.909,95.982 97.927,94.920 97.595 C 94.189 97.366,93.675 96.988,93.767 96.746 C 93.972 96.212,92.816 95.113,92.048 95.113 C 91.739 95.113,90.101 93.633,88.407 91.823 C 86.713 90.014,84.899 88.081,84.376 87.528 C 81.929 84.939,80.760 81.754,81.981 80.999 C 82.201 80.863,82.292 80.515,82.181 80.226 C 81.940 79.600,82.680 75.555,83.145 74.954 C 83.325 74.721,83.365 74.254,83.235 73.915 C 83.105 73.576,83.201 73.055,83.449 72.756 C 83.697 72.458,83.786 72.029,83.647 71.805 C 83.508 71.580,83.554 71.192,83.749 70.942 C 83.945 70.693,84.128 69.755,84.156 68.857 C 84.185 67.960,84.330 67.030,84.480 66.790 C 84.629 66.550,84.874 65.508,85.023 64.474 C 85.880 58.531,86.672 55.756,87.662 55.227 C 88.038 55.026,88.346 54.669,88.346 54.436 C 88.346 53.992,88.949 53.259,90.695 51.579 C 91.264 51.032,91.729 50.417,91.729 50.212 C 91.729 50.008,92.166 49.411,92.700 48.886 C 94.145 47.466,96.241 44.485,96.241 43.850 C 96.241 43.545,96.935 42.572,97.783 41.689 L 99.326 40.083 100.003 40.982 C 101.013 42.320,101.962 46.324,102.275 50.564 C 102.427 52.632,102.570 54.424,102.592 54.548 C 103.050 57.129,109.202 59.439,111.757 57.989 C 114.159 56.626,119.173 48.876,119.173 46.527 C 119.173 46.245,119.324 45.854,119.509 45.658 C 119.848 45.297,123.746 36.227,124.219 34.698 C 124.533 33.685,127.751 30.451,128.445 30.451 C 128.721 30.451,128.947 30.308,128.947 30.133 C 128.947 29.958,130.140 28.985,131.597 27.971 C 133.054 26.957,134.567 25.874,134.959 25.564 C 135.352 25.254,136.191 24.599,136.825 24.109 C 137.459 23.618,138.246 22.653,138.573 21.964 C 139.104 20.844,141.222 19.173,142.109 19.173 C 142.683 19.173,143.145 21.577,142.953 23.569 C 142.840 24.748,142.930 25.564,143.190 25.725 C 143.888 26.156,143.663 27.765,142.654 29.574 C 139.589 35.064,144.876 42.099,150.564 40.100 C 151.845 39.650,157.143 34.979,157.143 34.300 C 157.143 34.092,157.566 33.644,158.083 33.305 C 158.600 32.967,159.023 32.446,159.023 32.147 C 159.023 31.849,159.361 31.424,159.774 31.203 C 160.188 30.982,160.526 30.609,160.526 30.375 C 160.526 29.969,161.070 29.290,162.500 27.911 C 162.862 27.562,163.158 27.117,163.158 26.922 C 163.158 26.727,163.409 26.299,163.716 25.971 C 165.578 23.983,166.914 22.317,166.915 21.982 C 166.919 21.274,169.024 19.278,170.423 18.658 C 171.183 18.321,172.380 17.791,173.083 17.481 C 173.786 17.171,174.546 16.917,174.771 16.917 C 175.265 16.917,179.532 15.289,182.185 14.087 C 183.243 13.608,184.213 12.942,184.341 12.607 C 184.856 11.267,188.932 10.034,189.340 11.095 " stroke="none" fill="none" fill-rule="evenodd"></path><path id="path1" d="M186.178 11.271 C 185.297 11.671,184.470 12.272,184.341 12.607 C 184.213 12.942,183.243 13.608,182.185 14.087 C 179.532 15.289,175.265 16.917,174.771 16.917 C 174.546 16.917,173.786 17.171,173.083 17.481 C 172.380 17.791,171.183 18.321,170.423 18.658 C 169.024 19.278,166.919 21.274,166.915 21.982 C 166.914 22.317,165.578 23.983,163.716 25.971 C 163.409 26.299,163.158 26.727,163.158 26.922 C 163.158 27.117,162.862 27.562,162.500 27.911 C 161.070 29.290,160.526 29.969,160.526 30.375 C 160.526 30.609,160.188 30.982,159.774 31.203 C 159.361 31.424,159.023 31.849,159.023 32.147 C 159.023 32.446,158.600 32.967,158.083 33.305 C 157.566 33.644,157.143 34.092,157.143 34.300 C 157.143 34.979,151.845 39.650,150.564 40.100 C 148.264 40.909,143.639 39.281,142.712 37.337 C 141.596 34.998,141.570 31.514,142.654 29.574 C 143.663 27.765,143.888 26.156,143.190 25.725 C 142.930 25.564,142.840 24.748,142.953 23.569 C 143.145 21.577,142.683 19.173,142.109 19.173 C 141.222 19.173,139.104 20.844,138.573 21.964 C 138.246 22.653,137.459 23.618,136.825 24.109 C 136.191 24.599,135.352 25.254,134.959 25.564 C 134.567 25.874,133.054 26.957,131.597 27.971 C 130.140 28.985,128.947 29.958,128.947 30.133 C 128.947 30.308,128.721 30.451,128.445 30.451 C 127.751 30.451,124.533 33.685,124.219 34.698 C 123.746 36.227,119.848 45.297,119.509 45.658 C 119.324 45.854,119.173 46.245,119.173 46.527 C 119.173 48.876,114.159 56.626,111.757 57.989 C 109.202 59.439,103.050 57.129,102.592 54.548 C 102.570 54.424,102.427 52.632,102.275 50.564 C 101.962 46.324,101.013 42.320,100.003 40.982 L 99.326 40.083 97.783 41.689 C 96.935 42.572,96.241 43.545,96.241 43.850 C 96.241 44.485,94.145 47.466,92.700 48.886 C 92.166 49.411,91.729 50.008,91.729 50.212 C 91.729 50.417,91.264 51.032,90.695 51.579 C 88.949 53.259,88.346 53.992,88.346 54.436 C 88.346 54.669,88.038 55.026,87.662 55.227 C 86.672 55.756,85.880 58.531,85.023 64.474 C 84.874 65.508,84.629 66.550,84.480 66.790 C 84.330 67.030,84.185 67.960,84.156 68.857 C 84.128 69.755,83.945 70.693,83.749 70.942 C 83.554 71.192,83.508 71.580,83.647 71.805 C 83.786 72.029,83.697 72.458,83.449 72.756 C 83.201 73.055,83.105 73.576,83.235 73.915 C 83.365 74.254,83.325 74.721,83.145 74.954 C 82.680 75.555,81.940 79.600,82.181 80.226 C 82.292 80.515,82.201 80.863,81.981 80.999 C 80.760 81.754,81.929 84.939,84.376 87.528 C 84.899 88.081,86.713 90.014,88.407 91.823 C 90.101 93.633,91.739 95.113,92.048 95.113 C 92.816 95.113,93.972 96.212,93.767 96.746 C 93.675 96.988,94.189 97.366,94.920 97.595 C 95.982 97.927,96.241 97.909,96.241 97.500 C 96.241 96.785,96.493 96.855,98.109 98.017 C 99.750 99.196,100.697 101.228,99.999 102.069 C 99.757 102.360,99.677 102.789,99.821 103.022 C 100.178 103.600,98.222 105.579,96.634 106.247 C 93.660 107.497,91.384 105.609,91.217 101.753 C 91.116 99.407,91.019 99.164,89.634 97.784 C 87.939 96.095,85.567 93.361,82.632 89.714 C 80.319 86.839,78.572 85.469,77.431 85.636 C 74.101 86.125,69.549 83.658,69.549 81.365 C 69.549 80.887,69.404 80.406,69.227 80.297 C 69.051 80.188,68.450 78.847,67.892 77.318 C 67.334 75.789,66.506 74.182,66.052 73.748 C 64.690 72.445,64.065 71.679,63.337 70.415 C 62.582 69.106,62.030 69.112,62.030 70.431 C 62.030 70.892,61.692 71.933,61.278 72.744 C 60.865 73.556,60.611 74.488,60.716 74.817 C 60.942 75.529,59.881 78.279,56.997 84.455 C 55.022 88.683,54.879 89.173,55.069 91.034 C 55.434 94.607,55.712 97.517,55.854 99.248 C 55.931 100.179,56.080 101.786,56.186 102.820 C 56.712 107.950,56.789 108.985,56.785 110.871 C 56.782 111.992,56.938 113.099,57.131 113.332 C 57.553 113.840,56.941 115.771,55.753 117.682 C 54.889 119.071,52.143 120.394,49.845 120.530 C 48.216 120.626,44.361 118.212,44.361 117.096 C 44.361 116.855,44.023 116.352,43.609 115.977 C 43.195 115.603,42.857 115.054,42.857 114.758 C 42.857 114.084,40.954 112.030,40.329 112.030 C 40.075 112.030,39.590 111.607,39.251 111.090 C 38.912 110.573,38.422 110.150,38.161 110.150 C 37.899 110.150,37.446 109.790,37.153 109.349 C 36.321 108.095,34.915 108.690,35.211 110.170 C 35.333 110.783,35.241 111.507,35.003 111.794 C 34.767 112.078,34.680 112.588,34.810 112.927 C 34.940 113.266,34.873 113.753,34.662 114.009 C 34.450 114.264,34.264 114.897,34.249 115.414 C 34.214 116.571,33.993 118.479,33.835 118.985 C 33.677 119.491,33.455 121.399,33.421 122.556 C 33.405 123.073,33.219 123.706,33.007 123.961 C 32.796 124.217,32.729 124.704,32.859 125.043 C 32.989 125.382,32.905 125.889,32.671 126.171 C 32.438 126.452,32.350 126.950,32.475 127.278 C 32.601 127.606,32.537 128.187,32.332 128.568 C 31.982 129.224,33.315 133.400,35.173 137.464 C 36.422 140.195,40.977 151.944,40.977 152.432 C 40.977 152.724,41.147 153.068,41.353 153.195 C 41.824 153.486,41.842 155.060,41.385 155.926 C 41.196 156.285,40.757 157.230,40.410 158.025 C 39.151 160.914,34.318 162.019,30.914 160.197 C 30.521 159.987,29.458 158.959,28.551 157.914 C 27.644 156.869,26.576 155.910,26.176 155.783 C 25.776 155.656,23.910 154.813,22.029 153.909 C 17.898 151.924,17.293 151.854,17.293 153.361 C 17.293 153.969,17.462 154.571,17.669 154.699 C 17.876 154.827,18.045 155.408,18.045 155.991 C 18.045 156.626,18.345 157.258,18.793 157.567 C 19.388 157.978,19.582 158.656,19.746 160.902 C 19.859 162.453,20.030 164.356,20.126 165.132 C 20.409 167.418,20.617 169.243,20.812 171.178 C 21.035 173.374,21.947 175.413,22.948 175.948 C 23.353 176.165,23.684 176.513,23.684 176.721 C 23.684 177.129,24.171 177.795,25.404 179.077 C 25.833 179.523,26.293 180.183,26.426 180.545 C 26.559 180.907,26.843 181.203,27.056 181.203 C 27.269 181.203,27.444 181.451,27.444 181.754 C 27.444 182.057,27.782 182.485,28.195 182.707 C 28.609 182.928,28.947 183.357,28.947 183.660 C 28.947 183.963,29.100 184.211,29.286 184.211 C 29.473 184.211,29.952 184.760,30.351 185.432 C 31.041 186.592,32.090 187.929,33.553 189.513 C 33.914 189.905,34.211 190.386,34.211 190.583 C 34.211 190.779,34.428 191.075,34.695 191.241 C 37.106 192.737,38.077 196.898,36.650 199.619 C 34.520 203.680,28.438 205.130,25.568 202.260 C 24.571 201.263,23.502 200.752,22.415 200.752 C 21.897 200.752,21.364 200.576,21.231 200.361 C 21.098 200.145,20.657 200.075,20.251 200.204 C 19.845 200.333,19.275 200.241,18.985 200.000 C 18.695 199.759,18.103 199.674,17.669 199.812 C 17.236 199.950,16.670 199.887,16.412 199.673 C 16.154 199.458,15.479 199.333,14.912 199.393 C 13.687 199.524,12.782 200.275,13.369 200.674 C 13.584 200.820,14.069 201.617,14.446 202.444 C 14.823 203.271,15.434 204.286,15.804 204.699 C 16.174 205.113,17.599 208.242,18.971 211.654 C 22.260 219.834,22.302 219.925,22.752 219.925 C 22.966 219.925,23.696 220.432,24.376 221.053 C 25.055 221.673,25.769 222.180,25.963 222.180 C 26.157 222.180,26.316 222.335,26.316 222.524 C 26.316 222.713,27.126 223.366,28.117 223.976 C 29.107 224.585,30.164 225.321,30.466 225.611 C 30.768 225.901,31.523 226.458,32.143 226.850 C 32.763 227.241,33.406 227.789,33.571 228.067 C 33.737 228.344,34.040 228.571,34.245 228.571 C 34.619 228.571,35.142 228.943,36.493 230.169 C 36.892 230.531,37.381 230.827,37.581 230.827 C 37.780 230.827,38.125 231.165,38.346 231.579 C 38.567 231.992,38.961 232.331,39.221 232.331 C 39.840 232.331,42.468 235.123,43.642 237.030 C 44.506 238.432,44.580 238.926,44.388 241.973 C 44.321 243.039,41.153 246.227,40.154 246.234 C 39.597 246.238,39.031 246.420,38.896 246.639 C 38.601 247.116,34.643 246.719,33.919 246.140 C 33.243 245.599,24.035 245.771,23.467 246.335 C 23.311 246.490,22.788 246.617,22.306 246.617 C 21.823 246.617,21.429 246.786,21.429 246.992 C 21.429 247.199,21.584 247.368,21.774 247.368 C 21.964 247.368,22.485 247.961,22.932 248.684 C 23.380 249.408,23.985 250.000,24.279 250.000 C 24.572 250.000,24.812 250.169,24.812 250.376 C 24.812 250.583,25.034 250.752,25.305 250.752 C 25.819 250.752,27.128 252.340,27.551 253.477 C 27.686 253.839,27.970 254.135,28.184 254.135 C 28.397 254.135,28.571 254.394,28.571 254.711 C 28.571 255.028,28.825 255.384,29.135 255.503 C 29.445 255.622,29.699 255.949,29.699 256.230 C 29.699 256.511,30.038 256.922,30.451 257.143 C 30.865 257.364,31.203 257.793,31.203 258.096 C 31.203 258.399,31.368 258.647,31.569 258.647 C 31.771 258.647,32.178 259.112,32.473 259.680 C 33.008 260.708,34.011 262.024,35.170 263.219 C 35.504 263.563,36.228 263.953,36.779 264.087 C 37.331 264.220,38.459 264.638,39.286 265.015 C 40.113 265.392,42.481 266.333,44.549 267.108 C 54.603 270.872,61.351 274.082,62.448 275.623 C 64.246 278.148,63.168 283.463,60.545 285.014 C 58.706 286.101,55.631 286.864,54.826 286.433 C 54.007 285.995,52.362 285.989,52.094 286.424 C 51.981 286.607,51.282 286.871,50.541 287.009 C 44.939 288.061,40.702 291.232,43.527 292.259 C 43.882 292.388,44.596 292.742,45.113 293.046 C 45.630 293.349,46.492 293.600,47.029 293.603 C 47.566 293.607,48.395 293.947,48.872 294.361 C 49.349 294.774,49.842 295.113,49.968 295.113 C 50.093 295.113,50.871 295.702,51.696 296.421 C 52.521 297.141,53.407 297.733,53.665 297.737 C 53.924 297.741,54.135 297.914,54.135 298.120 C 54.135 298.327,54.389 298.496,54.699 298.496 C 55.009 298.496,55.263 298.670,55.263 298.881 C 55.263 299.093,55.686 299.428,56.203 299.624 C 56.720 299.821,57.143 300.155,57.143 300.367 C 57.143 300.579,57.402 300.752,57.719 300.752 C 58.035 300.752,58.392 301.006,58.511 301.316 C 58.630 301.626,58.968 301.880,59.263 301.880 C 59.557 301.880,59.895 302.133,60.014 302.444 C 60.133 302.754,60.626 303.008,61.108 303.008 C 61.591 303.008,62.096 303.187,62.232 303.405 C 62.370 303.629,62.940 303.702,63.534 303.571 C 64.152 303.436,64.698 303.514,64.850 303.759 C 65.006 304.012,65.551 304.082,66.217 303.936 C 66.867 303.793,67.543 303.875,67.855 304.133 C 68.146 304.375,68.740 304.461,69.173 304.323 C 69.606 304.186,70.200 304.271,70.491 304.513 C 70.803 304.772,71.479 304.853,72.129 304.710 C 72.800 304.563,73.340 304.635,73.499 304.892 C 73.665 305.160,74.287 305.227,75.188 305.075 C 76.089 304.923,76.711 304.991,76.877 305.259 C 77.036 305.516,77.576 305.587,78.247 305.440 C 78.857 305.306,79.570 305.376,79.835 305.596 C 80.100 305.816,80.812 305.991,81.418 305.985 C 82.023 305.979,84.336 306.271,86.556 306.634 C 90.515 307.281,90.608 307.279,91.345 306.560 C 92.795 305.144,93.433 304.638,94.794 303.819 C 95.548 303.364,96.262 302.742,96.379 302.436 C 96.497 302.130,96.810 301.880,97.075 301.880 C 97.340 301.880,98.297 301.203,99.202 300.376 C 100.107 299.549,100.989 298.872,101.162 298.872 C 101.335 298.872,101.658 298.534,101.880 298.120 C 102.101 297.707,102.494 297.368,102.753 297.368 C 103.287 297.368,105.719 294.564,106.177 293.421 C 106.852 291.735,107.053 290.258,106.630 290.102 C 105.362 289.635,108.698 287.692,110.447 287.879 C 116.621 288.541,116.495 296.157,110.307 296.320 C 107.894 296.383,107.065 296.817,104.136 299.550 C 103.205 300.418,102.245 301.128,102.001 301.128 C 101.758 301.128,101.226 301.551,100.819 302.068 C 100.412 302.585,99.905 303.008,99.691 303.008 C 99.478 303.008,98.994 303.389,98.618 303.855 C 98.241 304.322,97.425 305.023,96.805 305.414 C 96.184 305.806,95.423 306.362,95.113 306.651 C 94.803 306.940,93.888 307.746,93.080 308.443 C 91.696 309.638,91.637 309.773,92.061 310.795 C 92.568 312.019,92.406 314.900,91.763 316.103 C 90.780 317.940,86.811 320.889,85.829 320.512 C 84.898 320.155,82.312 321.034,81.400 322.018 C 80.934 322.521,80.379 322.932,80.166 322.932 C 79.954 322.932,79.682 323.186,79.563 323.496 C 79.444 323.806,79.114 324.060,78.829 324.060 C 78.545 324.060,78.027 324.375,77.679 324.760 C 77.330 325.145,76.369 325.765,75.542 326.138 C 73.662 326.985,73.816 327.561,76.007 327.874 C 76.940 328.007,78.026 328.285,78.419 328.490 C 78.813 328.695,80.104 329.042,81.289 329.260 C 82.473 329.478,83.996 329.900,84.672 330.198 C 85.349 330.496,86.664 331.076,87.594 331.486 C 88.524 331.897,89.709 332.363,90.226 332.522 C 91.136 332.801,94.471 334.221,96.102 335.023 C 96.570 335.254,97.273 335.290,97.794 335.111 C 98.283 334.943,99.023 334.770,99.436 334.727 C 100.106 334.657,101.584 334.452,104.511 334.023 C 105.028 333.948,106.214 333.796,107.147 333.686 C 108.742 333.498,115.603 332.455,117.669 332.086 C 121.002 331.491,124.529 331.742,127.136 332.760 C 129.520 333.690,130.376 339.183,128.539 341.766 C 128.039 342.470,127.447 343.376,127.224 343.781 C 127.000 344.186,126.240 344.662,125.533 344.839 C 124.826 345.016,124.079 345.371,123.872 345.630 C 123.665 345.888,123.196 346.212,122.830 346.349 C 122.463 346.487,122.056 346.899,121.924 347.266 C 121.792 347.632,121.111 348.524,120.411 349.248 C 118.071 351.665,117.669 352.144,117.669 352.519 C 117.669 352.724,117.323 353.204,116.901 353.586 C 116.478 353.969,116.182 354.625,116.243 355.045 C 116.409 356.190,120.359 356.325,121.387 355.221 C 121.933 354.635,122.384 354.512,123.360 354.684 C 124.055 354.807,125.216 354.983,125.940 355.074 C 136.904 356.463,139.719 356.522,142.105 355.413 C 143.036 354.981,144.981 354.162,146.429 353.592 C 147.876 353.023,149.378 352.389,149.766 352.185 C 150.154 351.981,152.012 351.219,153.895 350.491 C 155.779 349.764,158.041 348.848,158.923 348.457 C 159.805 348.065,161.286 347.406,162.214 346.992 C 164.318 346.055,167.324 346.011,168.927 346.894 C 170.583 347.805,171.805 348.913,171.805 349.502 C 171.805 349.776,171.962 350.000,172.155 350.000 C 174.264 350.000,172.515 357.237,170.020 358.835 C 169.315 359.287,168.545 360.299,168.090 361.372 C 167.675 362.354,167.156 363.158,166.938 363.158 C 166.720 363.158,166.541 363.407,166.541 363.712 C 166.541 364.017,165.949 365.363,165.226 366.704 C 162.927 370.961,164.114 371.406,171.053 368.890 C 171.363 368.777,171.981 368.720,172.426 368.763 C 172.872 368.806,173.348 368.662,173.483 368.442 C 173.619 368.222,174.145 368.146,174.652 368.274 C 175.161 368.401,175.816 368.304,176.115 368.056 C 176.412 367.809,177.010 367.719,177.444 367.857 C 177.877 367.995,178.469 367.910,178.759 367.669 C 179.050 367.428,179.642 367.344,180.075 367.481 C 180.509 367.619,181.101 367.534,181.391 367.293 C 181.681 367.052,182.273 366.968,182.707 367.105 C 183.140 367.243,183.732 367.158,184.023 366.917 C 184.313 366.676,184.868 366.580,185.257 366.703 C 185.669 366.834,186.288 366.651,186.744 366.265 C 187.173 365.900,187.904 365.348,188.369 365.038 C 188.834 364.727,189.480 364.178,189.804 363.816 C 190.128 363.454,190.609 363.158,190.873 363.158 C 191.137 363.158,191.353 363.005,191.353 362.819 C 191.353 362.633,191.948 362.129,192.675 361.700 C 194.149 360.831,194.870 360.276,195.787 359.305 C 196.128 358.943,196.624 358.647,196.888 358.647 C 197.152 358.647,197.368 358.489,197.368 358.296 C 197.368 358.103,197.688 357.844,198.078 357.720 C 198.469 357.596,199.207 357.120,199.718 356.661 C 200.230 356.202,200.904 355.658,201.216 355.451 C 204.225 353.459,205.639 352.409,205.639 352.168 C 205.639 352.009,205.893 351.880,206.203 351.880 C 206.513 351.880,206.767 351.744,206.767 351.579 C 206.767 351.111,209.989 349.659,211.595 349.402 C 216.912 348.552,220.986 356.524,217.544 361.041 C 216.734 362.103,216.447 362.940,216.351 364.524 C 216.281 365.670,216.126 366.706,216.007 366.826 C 215.887 366.945,215.789 367.355,215.789 367.737 C 215.789 368.119,215.620 368.767,215.414 369.178 C 215.207 369.589,214.881 370.240,214.691 370.625 C 214.283 371.448,214.605 374.436,215.102 374.436 C 215.869 374.436,218.585 372.795,219.378 371.852 C 219.846 371.297,220.625 370.650,221.110 370.414 C 222.853 369.568,227.366 367.571,232.033 365.583 C 234.777 364.413,238.346 361.371,238.346 360.201 C 238.346 359.953,238.593 359.656,238.894 359.540 C 239.196 359.425,239.879 358.584,240.414 357.673 C 240.948 356.761,241.547 356.015,241.745 356.015 C 241.943 356.015,242.105 355.803,242.105 355.545 C 242.105 355.286,242.782 354.335,243.609 353.430 C 244.436 352.525,245.113 351.643,245.113 351.469 C 245.113 351.296,245.451 350.973,245.865 350.752 C 246.278 350.531,246.617 350.102,246.617 349.799 C 246.617 349.496,246.790 349.248,247.002 349.248 C 247.214 349.248,247.548 348.825,247.744 348.308 C 247.941 347.791,248.275 347.368,248.487 347.368 C 248.699 347.368,248.872 347.121,248.872 346.818 C 248.872 346.515,249.211 346.086,249.624 345.865 C 250.038 345.643,250.376 345.299,250.376 345.099 C 250.376 343.945,254.476 340.967,256.391 340.729 C 257.508 340.590,261.278 341.692,261.278 342.157 C 261.278 342.335,261.529 342.481,261.834 342.481 C 263.322 342.481,264.830 348.958,263.750 350.706 C 263.395 351.281,263.239 357.519,263.581 357.519 C 263.710 357.519,263.816 358.588,263.816 359.894 C 263.816 363.455,264.886 365.411,265.602 363.158 C 265.733 362.744,265.986 362.406,266.164 362.406 C 266.542 362.406,266.899 362.056,269.172 359.454 C 270.103 358.390,271.069 357.519,271.321 357.519 C 271.572 357.519,271.959 357.180,272.180 356.767 C 272.402 356.353,272.769 356.015,272.996 356.015 C 273.224 356.015,273.801 355.634,274.278 355.169 C 276.123 353.371,276.582 353.008,277.005 353.008 C 277.246 353.008,277.444 352.850,277.444 352.657 C 277.444 352.464,277.765 352.204,278.158 352.080 C 279.750 351.574,282.571 348.239,283.462 345.809 C 283.944 344.496,284.830 342.321,285.432 340.977 C 286.765 338.002,286.757 338.021,288.720 332.895 C 291.535 325.547,293.225 322.243,294.518 321.564 C 295.868 320.856,299.109 320.524,299.441 321.060 C 299.566 321.263,300.039 321.433,300.492 321.439 C 302.738 321.466,306.242 326.945,305.831 329.785 C 305.592 331.432,305.699 331.838,308.144 338.532 C 309.256 341.577,310.242 342.534,310.790 341.099 C 310.934 340.722,311.357 340.086,311.729 339.685 C 312.101 339.284,312.406 338.579,312.406 338.117 C 312.406 337.363,313.401 335.061,313.933 334.587 C 314.049 334.483,314.888 333.257,315.798 331.861 C 316.708 330.465,317.586 329.323,317.749 329.323 C 317.912 329.323,318.045 329.096,318.045 328.818 C 318.045 328.540,318.407 327.990,318.849 327.596 C 319.291 327.202,319.885 326.330,320.170 325.658 C 320.454 324.986,320.854 324.436,321.058 324.436 C 321.262 324.436,321.429 324.177,321.429 323.860 C 321.429 323.544,321.667 323.193,321.959 323.081 C 322.510 322.870,322.938 321.665,323.145 319.737 C 323.212 319.117,323.363 317.763,323.481 316.729 C 323.600 315.695,323.786 313.919,323.896 312.782 C 324.250 309.106,324.398 307.739,324.629 306.015 C 324.754 305.085,324.922 303.647,325.002 302.820 C 325.083 301.992,325.255 300.470,325.385 299.436 C 325.514 298.402,325.651 297.133,325.689 296.617 C 325.762 295.605,326.935 293.199,327.547 292.804 C 328.136 292.423,327.537 290.733,326.336 289.387 C 325.732 288.711,324.639 287.481,323.907 286.654 C 323.175 285.827,321.852 284.361,320.968 283.396 C 320.084 282.431,319.023 281.177,318.609 280.609 C 316.428 277.614,314.502 276.089,312.288 275.603 C 310.908 275.300,310.017 274.893,309.872 274.498 C 309.745 274.154,309.228 273.322,308.723 272.650 C 307.249 270.688,308.521 268.545,311.555 267.879 C 313.675 267.413,315.660 269.158,316.021 271.805 C 316.324 274.021,316.678 275.382,317.066 275.819 C 317.294 276.076,318.327 277.250,319.361 278.428 C 320.395 279.605,321.875 281.180,322.650 281.928 C 323.426 282.675,324.060 283.432,324.060 283.609 C 324.060 283.932,326.159 286.211,329.323 289.325 C 331.000 290.975,331.286 291.114,333.835 291.519 C 335.919 291.851,339.474 295.455,339.474 297.236 C 339.474 298.356,341.554 301.987,342.951 303.305 C 343.313 303.647,343.609 304.105,343.609 304.323 C 343.609 304.541,344.074 305.161,344.643 305.700 C 345.211 306.239,345.904 306.963,346.181 307.308 C 347.344 308.757,349.059 305.917,348.779 303.008 C 348.694 302.134,349.395 299.870,350.582 297.180 C 353.021 291.650,354.937 285.517,354.545 284.488 C 354.364 284.012,354.107 282.528,353.974 281.191 C 353.841 279.854,353.580 278.167,353.393 277.444 C 353.207 276.720,352.948 275.282,352.818 274.248 C 352.688 273.214,352.519 271.945,352.442 271.429 C 352.365 270.912,352.202 269.400,352.080 268.070 C 351.957 266.739,351.692 265.453,351.491 265.210 C 351.290 264.968,351.227 264.258,351.352 263.633 C 351.480 262.993,351.407 262.391,351.185 262.253 C 350.737 261.976,350.980 258.620,351.556 257.143 C 352.610 254.434,357.941 253.293,360.546 255.218 C 361.139 255.656,361.785 256.015,361.983 256.015 C 362.388 256.015,365.789 260.415,365.789 260.940 C 365.789 261.126,366.013 261.278,366.286 261.278 C 366.558 261.278,367.134 261.659,367.564 262.124 C 368.452 263.085,369.804 264.211,371.063 265.038 C 371.535 265.348,372.187 265.898,372.510 266.259 C 373.513 267.379,374.918 267.132,374.651 265.883 C 374.242 263.975,374.445 254.494,374.918 253.383 C 375.050 253.073,375.158 252.143,375.158 251.316 C 375.159 249.375,375.379 247.105,375.707 245.658 C 375.917 244.732,375.576 243.680,373.934 240.186 C 372.816 237.807,371.775 235.447,371.621 234.942 C 371.466 234.436,371.119 233.769,370.850 233.459 C 370.581 233.148,370.025 232.049,369.615 231.015 C 369.206 229.981,367.938 227.190,366.797 224.812 C 364.857 220.766,364.472 219.364,364.607 216.838 C 364.668 215.707,367.160 213.128,368.568 212.740 C 370.646 212.167,377.068 213.957,377.068 215.109 C 377.068 215.987,384.497 220.169,387.307 220.873 C 389.596 221.447,389.829 218.758,387.791 215.270 C 386.970 213.865,385.752 208.899,385.154 204.511 C 384.575 200.275,383.678 197.283,382.816 196.718 C 382.342 196.408,381.955 195.931,381.955 195.659 C 381.955 195.387,381.447 194.803,380.827 194.361 C 380.207 193.919,379.699 193.370,379.699 193.140 C 379.699 192.910,379.149 192.195,378.477 191.551 C 377.333 190.454,376.434 189.388,374.624 186.982 C 374.211 186.432,373.492 185.576,373.026 185.079 C 372.561 184.583,372.180 184.053,372.180 183.901 C 372.180 183.750,371.715 183.179,371.147 182.632 C 364.322 176.066,365.104 169.515,372.737 169.296 C 375.637 169.213,375.831 169.262,377.819 170.573 C 379.950 171.978,383.123 172.895,385.940 172.919 C 386.788 172.926,388.027 173.123,388.694 173.355 C 391.189 174.225,390.458 171.073,387.201 166.920 C 386.632 166.195,386.046 165.199,385.899 164.707 C 385.002 161.698,380.334 152.987,379.038 151.903 C 377.165 150.335,377.144 150.321,375.121 149.143 C 374.153 148.580,373.138 147.899,372.865 147.629 C 372.592 147.359,371.819 146.815,371.147 146.420 C 370.475 146.026,369.925 145.570,369.925 145.408 C 369.925 145.245,369.671 145.113,369.361 145.113 C 369.051 145.113,368.797 144.982,368.797 144.822 C 368.797 144.663,368.205 144.213,367.481 143.823 C 366.758 143.434,366.165 142.972,366.165 142.798 C 366.165 142.624,365.912 142.481,365.602 142.481 C 365.291 142.481,365.038 142.307,365.038 142.093 C 365.038 141.880,364.742 141.594,364.380 141.457 C 364.018 141.320,363.516 141.029,363.265 140.811 C 361.988 139.701,361.655 139.474,361.307 139.474 C 361.099 139.474,360.754 139.147,360.540 138.747 C 360.326 138.348,359.806 137.911,359.385 137.778 C 357.665 137.232,355.914 132.796,356.780 131.179 C 358.421 128.113,363.910 125.931,365.763 127.608 C 366.542 128.313,369.381 128.466,373.684 128.034 C 375.028 127.900,376.650 127.739,377.288 127.677 C 379.648 127.448,379.946 126.308,378.283 123.872 C 377.397 122.576,377.090 122.384,376.057 122.484 C 375.084 122.579,374.736 122.402,374.208 121.545 C 373.552 120.482,372.274 119.048,370.019 116.845 C 369.347 116.188,368.797 115.477,368.797 115.264 C 368.797 114.847,368.164 114.137,365.226 111.255 C 364.192 110.241,363.132 109.409,362.871 109.405 C 362.610 109.401,362.102 109.240,361.743 109.046 C 361.384 108.853,359.821 108.238,358.271 107.680 C 356.720 107.122,354.918 106.435,354.266 106.153 C 353.615 105.870,352.949 105.639,352.787 105.639 C 352.626 105.639,351.805 105.313,350.965 104.914 C 350.124 104.515,348.724 104.003,347.854 103.776 C 346.984 103.549,346.171 103.198,346.046 102.997 C 345.922 102.796,345.490 102.632,345.085 102.632 C 344.681 102.632,344.057 102.472,343.698 102.278 C 343.339 102.083,341.945 101.396,340.602 100.751 C 336.079 98.582,334.644 93.518,337.964 91.444 C 339.547 90.456,343.153 89.211,343.648 89.482 C 344.420 89.904,349.747 88.851,352.068 87.817 C 352.688 87.540,353.914 87.006,354.793 86.630 C 357.251 85.577,356.752 84.093,353.602 83.080 C 351.930 82.543,349.784 81.353,348.707 80.367 C 348.306 80.000,347.757 79.699,347.486 79.699 C 347.214 79.699,346.992 79.530,346.992 79.323 C 346.992 79.117,346.739 78.947,346.429 78.947 C 346.118 78.947,345.865 78.778,345.865 78.571 C 345.865 78.365,345.611 78.195,345.301 78.195 C 344.991 78.195,344.737 78.053,344.737 77.879 C 344.737 77.705,344.145 77.243,343.421 76.853 C 342.697 76.464,342.105 76.014,342.105 75.854 C 342.105 75.695,341.852 75.564,341.541 75.564 C 341.231 75.564,340.977 75.397,340.977 75.193 C 340.977 74.989,340.428 74.592,339.756 74.311 C 339.084 74.031,338.298 73.517,338.011 73.170 C 337.691 72.784,337.210 72.628,336.771 72.767 C 336.377 72.892,335.840 72.817,335.579 72.600 C 335.318 72.383,334.353 72.206,333.435 72.206 C 332.518 72.205,330.836 72.118,329.699 72.010 C 328.562 71.903,326.870 71.748,325.940 71.665 C 325.009 71.582,322.979 71.400,321.429 71.260 C 319.878 71.120,318.017 70.871,317.293 70.705 C 316.570 70.539,315.470 70.383,314.850 70.359 C 313.355 70.298,308.647 68.792,308.647 68.374 C 308.647 67.649,306.873 68.108,305.922 69.079 C 305.365 69.648,304.326 70.593,303.615 71.179 C 302.903 71.765,301.620 72.896,300.765 73.692 C 299.909 74.487,299.061 75.192,298.880 75.257 C 298.700 75.322,297.736 76.138,296.738 77.069 C 295.741 78.001,294.279 79.245,293.490 79.834 C 292.548 80.536,292.130 81.101,292.274 81.477 C 292.395 81.792,292.301 82.283,292.066 82.566 C 291.830 82.850,291.746 83.083,291.879 83.083 C 292.012 83.083,291.786 83.739,291.376 84.542 C 290.094 87.054,288.275 87.073,285.996 84.595 C 282.853 81.179,283.877 79.396,289.353 78.750 C 291.989 78.439,292.468 78.171,295.971 75.050 C 297.169 73.983,298.599 72.772,301.446 70.414 C 301.995 69.960,302.951 69.149,303.571 68.612 C 304.192 68.075,305.187 67.252,305.784 66.782 C 306.719 66.047,306.809 65.819,306.442 65.132 C 305.639 63.633,306.973 61.033,309.067 60.016 C 309.353 59.878,310.432 59.265,311.466 58.654 C 312.500 58.043,313.722 57.538,314.182 57.531 C 315.160 57.517,318.421 56.004,318.421 55.564 C 318.421 55.399,318.675 55.263,318.985 55.263 C 319.295 55.263,319.549 55.115,319.549 54.933 C 319.549 54.751,320.067 54.388,320.700 54.126 C 322.401 53.421,324.838 49.892,323.214 50.485 C 322.956 50.579,322.369 50.315,321.910 49.897 C 321.224 49.273,320.973 49.222,320.504 49.611 C 320.036 49.999,319.891 49.973,319.697 49.467 C 319.543 49.067,319.212 48.929,318.754 49.074 C 318.366 49.197,317.498 49.123,316.825 48.910 C 313.389 47.822,309.583 46.521,306.203 45.280 C 302.101 43.773,302.160 43.783,299.436 44.163 C 298.402 44.307,297.133 44.482,296.617 44.551 C 295.515 44.698,293.213 45.024,291.353 45.296 C 290.630 45.401,289.192 45.584,288.158 45.701 C 287.124 45.818,284.430 46.241,282.171 46.641 C 275.939 47.745,271.429 47.257,271.429 45.478 C 271.429 45.307,271.215 44.943,270.954 44.670 C 269.084 42.713,268.976 40.021,270.719 38.800 C 271.109 38.527,271.429 38.086,271.429 37.821 C 271.429 37.556,272.536 36.628,273.890 35.759 C 275.244 34.890,277.192 33.298,278.221 32.221 C 279.249 31.144,280.679 29.658,281.398 28.918 C 284.034 26.209,281.527 24.714,276.481 25.985 C 275.226 26.301,274.678 26.297,274.283 25.969 C 273.982 25.719,273.335 25.637,272.775 25.778 C 272.213 25.919,271.568 25.836,271.264 25.584 C 270.941 25.315,270.226 25.238,269.432 25.387 C 268.605 25.543,268.033 25.473,267.862 25.195 C 267.688 24.914,267.084 24.845,266.165 25.000 C 265.370 25.134,264.639 25.080,264.514 24.877 C 263.893 23.872,258.819 24.875,255.263 26.706 C 254.539 27.078,253.017 27.743,251.880 28.182 C 250.742 28.622,249.220 29.239,248.496 29.554 C 247.773 29.869,246.758 30.299,246.241 30.511 C 245.724 30.723,244.822 31.135,244.236 31.426 C 243.651 31.717,242.930 31.955,242.634 31.955 C 242.337 31.955,241.801 32.107,241.442 32.292 C 240.108 32.982,237.601 33.938,236.950 34.006 C 236.581 34.044,235.981 34.209,235.618 34.372 C 233.347 35.392,228.571 31.768,228.571 29.023 C 228.571 26.510,229.596 24.143,230.798 23.879 C 231.590 23.705,232.054 23.198,232.715 21.787 C 233.195 20.763,233.896 19.645,234.275 19.303 C 234.653 18.961,234.962 18.457,234.962 18.184 C 234.962 17.911,235.300 17.133,235.713 16.456 C 236.126 15.779,236.464 14.845,236.465 14.380 C 236.466 13.914,236.635 13.534,236.842 13.534 C 237.354 13.534,237.320 11.762,236.802 11.441 C 236.573 11.300,235.685 11.391,234.828 11.644 C 233.152 12.138,232.922 12.249,231.509 13.252 C 230.999 13.614,229.580 13.999,228.355 14.109 C 227.130 14.218,225.620 14.466,225.000 14.660 C 224.380 14.855,223.026 15.086,221.992 15.173 C 216.871 15.608,215.025 15.932,214.397 16.510 C 214.026 16.850,213.087 17.518,212.312 17.994 C 211.537 18.469,210.902 19.014,210.902 19.204 C 210.902 19.393,210.733 19.549,210.526 19.549 C 210.320 19.549,209.840 19.845,209.461 20.207 C 209.081 20.569,208.389 21.118,207.922 21.429 C 207.455 21.739,206.724 22.289,206.298 22.650 C 205.873 23.012,205.423 23.311,205.300 23.314 C 205.176 23.318,204.502 23.825,203.802 24.442 C 203.102 25.059,202.415 25.564,202.276 25.564 C 202.136 25.564,201.694 25.861,201.293 26.225 C 200.892 26.588,200.056 27.207,199.436 27.600 C 198.816 27.993,198.173 28.541,198.008 28.819 C 197.842 29.096,197.494 29.323,197.233 29.323 C 196.972 29.323,196.414 29.644,195.994 30.035 C 194.828 31.122,193.014 31.955,191.815 31.955 C 190.457 31.955,187.218 30.870,187.218 30.416 C 187.218 30.228,186.993 30.075,186.717 30.075 C 186.156 30.075,183.835 27.347,183.835 26.689 C 183.835 26.456,184.258 25.711,184.774 25.033 C 185.291 24.356,185.714 23.597,185.714 23.348 C 185.714 22.746,186.850 20.552,187.318 20.250 C 187.665 20.025,187.773 19.552,188.125 16.729 C 188.418 14.372,188.833 12.577,189.189 12.129 C 190.357 10.656,188.623 10.161,186.178 11.271 " stroke="none" fill="#0099ff" fill-rule="evenodd"></path></g></svg>